<svg viewBox="0 0 863.45 560.71" xmlns="http://www.w3.org/2000/svg" xmlns:xlink="http://www.w3.org/1999/xlink"><clipPath id="a"><path d="m501.34 240.3v-77.15l-66.82-38.58-66.81 38.58v77.15l66.81 38.58z"/></clipPath><g fill="#fff"><path d="m162 378c-3.75-1.2-7.61-2.19-11.34-3.16-2-.51-4-1-6-1.57l-1.85-.49a49.68 49.68 0 0 1 -6.31-2c-3.78-1.55-5.68-4.29-5.65-8.14 0-4.09 2-6.93 5.85-8.67 2.64-1.19 5.62-1.55 9.65-1.17 3 .29 10.35 1.79 12.33 9.61.18.7.54 2.18.54 2.18l2.34-.59c5.66-1.51 11.52-3.06 17.29-4.54.7-.18 2.1-.59 2.1-.59s-.3-1.45-.48-2.22c-2.34-10.23-8.35-17.51-17.86-21.62a45 45 0 0 0 -35.12-.56c-8 3.08-13.94 8.6-17.09 15.94a33.43 33.43 0 0 0 -.14 25.12c3.33 8.09 9.53 13.67 18.41 16.59 4.24 1.39 8.65 2.47 12.91 3.51 2.41.59 4.9 1.19 7.42 1.88a34.61 34.61 0 0 1 6.89 2.39 8.47 8.47 0 0 1 3.74 11.29c-1.18 2.51-3.4 4.16-6.79 5a27.68 27.68 0 0 1 -15.18-.31c-4.76-1.44-7.79-4-9.26-7.8-.23-.59-.41-1.22-.6-1.89-.1-.33-.19-.66-.29-1l-.35-1.13-21.56 5.51.26 1.17c.09.39.17.76.25 1.12.17.79.33 1.53.53 2.25 2.59 9.35 8.75 16.19 18.31 20.33a49.62 49.62 0 0 0 19.84 4.17 53.52 53.52 0 0 0 16.06-2.54c13.13-4.1 20.6-12.75 22.2-25.71 1-8.38-.83-15.76-5.56-21.93a30.75 30.75 0 0 0 -15.49-10.43z"/><path d="m361.82 365.94h-13v-28h-21.72v28h-26.83v-28h-21.69v28.06h-13v18.6h13v52h21.69v-52h26.85v52h21.66v-52.05l13.06.05z"/><path d="m704.25 393.91a46.94 46.94 0 0 0 -.73-8.38c-1.76-9.4-6.8-15.86-15-19.21a34.75 34.75 0 0 0 -19.12-1.89 23.69 23.69 0 0 0 -12.82 6l-.43-4.39h-20.7l-.15 70.68h22s0-26.33 0-37.79a37 37 0 0 1 .17-4c.44-4.23 2.06-7 5.08-8.68a15 15 0 0 1 9.74-2.09c5.59.83 8.82 3.69 9.59 8.51a36.65 36.65 0 0 1 .45 6v38h22s-.05-35.23-.08-42.76z"/><path d="m745.02 365.92v-27.99h-21.77l.02 28.08h-12.98l-.03 18.63h13.01v52.01h21.86v-52h12.73v-18.73z"/><path d="m369.68 337.93h21.88v98.69h-21.88z"/><path d="m600.38 366.07h21.85v70.58h-21.85z"/><path d="m611.46 331.71h-.06a12.63 12.63 0 0 0 -9.16 21.47 12.81 12.81 0 0 0 9.09 3.75 12.69 12.69 0 0 0 8.84-21.57 12.29 12.29 0 0 0 -8.71-3.65z"/><path d="m563.09 337.93-28.47 70.42-28.37-70.42h-23.31v98.7h21.86v-49.25l19.22 49.36h21.04l19.56-49.96v49.85h22.5v-98.7z"/><path d="m238.48 414.49a12.92 12.92 0 0 1 -2.14 2.11c-5.41 4.07-15.26 3.81-20.66-.54a11 11 0 0 1 -3.91-6.75h49.71.52v-2.3c.08-5.51.16-11.21-1.22-16.78-2.53-10.14-8.06-17.57-16.43-22.08-7.36-4-15.76-5.15-25-3.52-11.27 2-19.5 8.08-24.46 18.08-4.45 9-5.41 18.91-2.84 29.58 2.4 10 8 17.41 16.79 22.11a36.09 36.09 0 0 0 17.46 4.13c1 0 2.12 0 3.21-.1 9.37-.6 17.23-4 23.36-10a27.81 27.81 0 0 0 5-6.79zm-15.29-31.78c5.2-.79 9.1 0 12.25 2.56 2.33 1.87 3.61 4.38 4.09 8h-27.22a12.94 12.94 0 0 1 10.88-10.56z"/><path d="m449.34 414.49a13 13 0 0 1 -2.15 2.11c-5.4 4.07-15.26 3.81-20.65-.54a11 11 0 0 1 -3.92-6.75h49.71.52v-2.3c.08-5.51.17-11.21-1.22-16.78-2.52-10.14-8.05-17.57-16.43-22.08-7.35-4-15.75-5.15-25-3.52-11.26 2-19.49 8.08-24.46 18.08-4.45 9-5.4 18.91-2.84 29.58 2.41 10 8.06 17.41 16.8 22.11a36.05 36.05 0 0 0 17.45 4.13c1 0 2.12 0 3.21-.1 9.37-.6 17.23-4 23.36-10a27.55 27.55 0 0 0 5-6.79zm-15.29-31.78c5.2-.79 9.09 0 12.24 2.56 2.33 1.87 3.62 4.38 4.09 8h-27.21a12.92 12.92 0 0 1 10.88-10.56z"/></g><g clip-path="url(#a)"><g fill="#a3e1c1"><path d="m367.71 124.57h133.63v154.31h-133.63z"/><path d="m507.82 244.2a81.44 81.44 0 0 1 -149.88-13.39h7.24v-62.08h-1.69a81.44 81.44 0 0 1 149.88 13.39h-9.5v62.08z"/><path d="m507.71 244.14a81.32 81.32 0 0 1 -149.66-13.37h7.13v-62h-1.59a81.32 81.32 0 0 1 149.66 13.37h-9.38v62z"/></g><path d="m507.6 244.08a81.2 81.2 0 0 1 -149.43-13.36h7v-61.9h-1.47a81.2 81.2 0 0 1 149.44 13.36h-9.27v61.9z" fill="#a2e1c1"/><path d="m507.5 244a81.07 81.07 0 0 1 -149.21-13.33h6.89v-61.8h-1.37a81.08 81.08 0 0 1 149.19 13.34h-9.15v61.79z" fill="#a2e1c1"/><path d="m507.39 244a81 81 0 0 1 -149-13.32h6.78v-61.76h-1.26a80.95 80.95 0 0 1 149 13.32h-9v61.76z" fill="#a2e1c1"/><path d="m507.28 243.88a80.83 80.83 0 0 1 -148.76-13.29h6.66v-61.59h-1.18a80.83 80.83 0 0 1 148.76 13.3h-8.92v61.61z" fill="#a1e1c1"/><path d="m507.17 243.82a80.7 80.7 0 0 1 -148.53-13.27h6.54v-61.55h-1.05a80.71 80.71 0 0 1 148.54 13.27h-8.8v61.53z" fill="#a1e0c1"/><path d="m507.06 243.75a80.58 80.58 0 0 1 -148.31-13.25h6.43v-61.43h-.94a80.58 80.58 0 0 1 148.31 13.25h-8.68v61.43z" fill="#a0e0c1"/><path d="m507 243.69a80.46 80.46 0 0 1 -148.08-13.23h6.31v-61.34h-.83a80.46 80.46 0 0 1 148.09 13.23h-8.57v61.34z" fill="#a0e0c1"/><path d="m506.85 243.63a80.34 80.34 0 0 1 -147.85-13.22h6.19v-61.24h-.72a80.34 80.34 0 0 1 147.86 13.21h-8.45v61.25z" fill="#9fe0c1"/><path d="m506.74 243.56a80.22 80.22 0 0 1 -147.64-13.19h6.08v-61.15h-.61a80.21 80.21 0 0 1 147.63 13.19h-8.33v61.15z" fill="#9ee0c1"/><path d="m506.63 243.5a80.09 80.09 0 0 1 -147.41-13.18h6v-61.06h-.51a80.1 80.1 0 0 1 147.42 13.18h-8.22v61.06z" fill="#9ee0c1"/><path d="m506.52 243.43a80 80 0 0 1 -147.19-13.15h5.85v-61h-.4a80 80 0 0 1 147.22 13.19h-8.1v61z" fill="#9de0c1"/><path d="m506.41 243.37a79.85 79.85 0 0 1 -147-13.13h5.73v-60.88h-.29a79.84 79.84 0 0 1 147 13.14h-8v60.87z" fill="#9ddfc1"/><path d="m506.31 243.31a79.73 79.73 0 0 1 -146.74-13.12h5.61v-60.78h-.18a79.73 79.73 0 0 1 146.74 13.11h-7.87v60.79z" fill="#9cdfc1"/><path d="m506.2 243.24a79.61 79.61 0 0 1 -146.52-13.09h5.5v-60.69h-.07a79.61 79.61 0 0 1 146.51 13.09h-7.75v60.69z" fill="#9bdfc1"/><path d="m506.09 243.18a79.5 79.5 0 1 1 5.41-60.6h-7.63v60.6z" fill="#9bdfc1"/><path d="m506 243.11a79.35 79.35 0 1 1 5.41-60.5h-7.52v60.5z" fill="#9adfc1"/><path d="m505.87 243.05a79.24 79.24 0 1 1 5.4-60.41h-7.4v60.41z" fill="#99dfc1"/><path d="m505.77 243a79.11 79.11 0 1 1 5.39-60.31h-7.29v60.31z" fill="#98dec1"/><path d="m505.66 242.92a79 79 0 1 1 5.34-60.22h-7.17v60.22z" fill="#98dec1"/><path d="m505.55 242.86a78.88 78.88 0 1 1 5.37-60.13h-7.05v60.13z" fill="#97dec1"/><path d="m505.44 242.79a78.74 78.74 0 1 1 5.37-60h-6.94v60z" fill="#96dec1"/><path d="m505.33 242.73a78.62 78.62 0 1 1 5.36-59.95h-6.82v59.95z" fill="#96dec1"/><path d="m505.22 242.66a78.5 78.5 0 1 1 5.35-59.85h-6.7v59.85z" fill="#95dec2"/><path d="m505.12 242.6a78.39 78.39 0 1 1 5.34-59.76h-6.59v59.76z" fill="#94ddc2"/><path d="m505 242.53a78.27 78.27 0 1 1 5.33-59.66h-6.47v59.66z" fill="#93ddc2"/><path d="m504.9 242.47a78.15 78.15 0 1 1 5.32-59.57h-6.35v59.57z" fill="#92ddc2"/><path d="m504.79 242.41a78 78 0 1 1 5.32-59.48h-6.24v59.48z" fill="#92ddc2"/><path d="m504.68 242.34a77.9 77.9 0 1 1 5.32-59.34h-6.12v59.38z" fill="#91ddc2"/><path d="m504.58 242.28a77.79 77.79 0 1 1 5.29-59.3h-6v59.3z" fill="#90dcc2"/><path d="m504.47 242.21a77.65 77.65 0 1 1 5.29-59.2h-5.89v59.2z" fill="#8fdcc2"/><path d="m504.36 242.15a77.54 77.54 0 1 1 5.28-59.15h-5.77v59.11z" fill="#8edcc2"/><path d="m504.25 242.08a77.42 77.42 0 1 1 5.27-59h-5.65v59z" fill="#8edcc2"/><path d="m504.14 242a77.29 77.29 0 1 1 5.27-58.92h-5.54v58.92z" fill="#8ddcc2"/><path d="m504 242a77.17 77.17 0 1 1 5.26-58.83h-5.42v58.83z" fill="#8cdbc2"/><path d="m503.93 241.89a77.05 77.05 0 1 1 5.25-58.73h-5.31v58.73z" fill="#8bdbc2"/><path d="m503.82 241.83a76.94 76.94 0 1 1 5.24-58.64 76.93 76.93 0 0 1 -5.24 58.64z" fill="#8adbc2"/><path d="m503.71 241.76a76.8 76.8 0 1 1 5.23-58.54 76.8 76.8 0 0 1 -5.23 58.54z" fill="#89dbc2"/><path d="m503.6 241.7a76.66 76.66 0 1 1 5.23-58.46 76.68 76.68 0 0 1 -5.23 58.46z" fill="#89dbc2"/><path d="m503.49 241.64a76.55 76.55 0 1 1 5.22-58.37 76.57 76.57 0 0 1 -5.22 58.37z" fill="#88dac2"/><path d="m503.39 241.57a76.44 76.44 0 1 1 5.2-58.27 76.43 76.43 0 0 1 -5.2 58.27z" fill="#87dac2"/><path d="m503.28 241.51a76.31 76.31 0 1 1 5.2-58.18 76.31 76.31 0 0 1 -5.2 58.18z" fill="#86dac2"/><path d="m503.17 241.44a76.19 76.19 0 1 1 5.19-58.08 76.2 76.2 0 0 1 -5.19 58.08z" fill="#85dac2"/><path d="m503.06 241.38a76.07 76.07 0 1 1 5.18-58 76.07 76.07 0 0 1 -5.18 58z" fill="#84d9c2"/><path d="m503 241.31a75.94 75.94 0 1 1 5.18-57.89 75.94 75.94 0 0 1 -5.18 57.89z" fill="#83d9c2"/><path d="m502.85 241.25a75.84 75.84 0 1 1 5.16-57.8 75.84 75.84 0 0 1 -5.16 57.8z" fill="#82d9c2"/><path d="m502.74 241.19a75.72 75.72 0 1 1 5.15-57.72 75.71 75.71 0 0 1 -5.15 57.72z" fill="#81d9c2"/><path d="m502.63 241.12a75.58 75.58 0 1 1 5.15-57.62 75.57 75.57 0 0 1 -5.15 57.62z" fill="#81d9c2"/><path d="m502.52 241.06a75.46 75.46 0 1 1 5.14-57.53 75.47 75.47 0 0 1 -5.14 57.53z" fill="#80d8c2"/><path d="m502.41 241a75.34 75.34 0 1 1 5.13-57.43 75.34 75.34 0 0 1 -5.13 57.43z" fill="#7fd8c2"/><circle cx="435.65" cy="206.07" fill="#7ed8c2" r="75.22"/><circle cx="435.65" cy="206.07" fill="#7dd8c2" r="75.09"/><circle cx="435.65" cy="206.06" fill="#7cd7c2" r="74.97"/><circle cx="435.65" cy="206.05" fill="#7bd7c2" r="74.85"/><circle cx="435.65" cy="206.04" fill="#7ad7c3" r="74.73"/><circle cx="435.65" cy="206.04" fill="#79d7c3" r="74.61"/><circle cx="435.65" cy="206.03" fill="#78d6c3" r="74.48"/><circle cx="435.65" cy="206.02" fill="#77d6c3" r="74.36"/><circle cx="435.65" cy="206.01" fill="#76d6c3" r="74.24"/><circle cx="435.65" cy="206" fill="#75d6c3" r="74.12"/><circle cx="435.65" cy="206" fill="#74d6c3" r="74"/><circle cx="435.65" cy="205.99" fill="#73d5c3" r="73.87"/><circle cx="435.65" cy="205.98" fill="#72d5c3" r="73.75"/><circle cx="435.65" cy="205.97" fill="#71d5c3" r="73.63"/><circle cx="435.65" cy="205.97" fill="#70d5c3" r="73.51"/><circle cx="435.65" cy="205.96" fill="#6fd4c3" r="73.39"/><circle cx="435.65" cy="205.95" fill="#6ed4c3" r="73.26"/><circle cx="435.65" cy="205.94" fill="#6dd4c3" r="73.14"/><circle cx="435.65" cy="205.94" fill="#6cd4c3" r="73.02"/><circle cx="435.65" cy="205.93" fill="#6bd3c3" r="72.9"/><circle cx="435.65" cy="205.92" fill="#6ad3c3" r="72.78"/><circle cx="435.65" cy="205.91" fill="#69d3c3" r="72.65"/><circle cx="435.65" cy="205.9" fill="#68d3c3" r="72.53"/><circle cx="435.65" cy="205.9" fill="#67d2c3" r="72.41"/><circle cx="435.65" cy="205.89" fill="#66d2c3" r="72.29"/><circle cx="435.65" cy="205.88" fill="#65d2c3" r="72.17"/><circle cx="435.65" cy="205.87" fill="#64d2c3" r="72.04"/><circle cx="435.65" cy="205.87" fill="#63d1c3" r="71.92"/><circle cx="435.65" cy="205.86" fill="#62d1c3" r="71.8"/><circle cx="435.65" cy="205.85" fill="#61d1c3" r="71.68"/><circle cx="435.65" cy="205.84" fill="#60d0c3" r="71.56"/><circle cx="435.65" cy="205.84" fill="#5fd0c4" r="71.43"/><circle cx="435.65" cy="205.83" fill="#5ed0c4" r="71.31"/><circle cx="435.65" cy="205.82" fill="#5dd0c4" r="71.19"/><circle cx="435.65" cy="205.81" fill="#5bcfc4" r="71.07"/><circle cx="435.65" cy="205.8" fill="#5acfc4" r="70.95"/><circle cx="435.65" cy="205.8" fill="#59cfc4" r="70.82"/><circle cx="435.65" cy="205.79" fill="#58cfc4" r="70.7"/><circle cx="435.65" cy="205.78" fill="#57cec4" r="70.58"/><circle cx="435.65" cy="205.77" fill="#56cec4" r="70.46"/><circle cx="435.65" cy="205.77" fill="#55cec4" r="70.34"/><circle cx="435.65" cy="205.76" fill="#54cec4" r="70.21"/><circle cx="435.65" cy="205.75" fill="#53cdc4" r="70.09"/><circle cx="435.65" cy="205.74" fill="#52cdc4" r="69.97"/><circle cx="435.65" cy="205.74" fill="#51cdc4" r="69.85"/><circle cx="435.65" cy="205.73" fill="#4fccc4" r="69.73"/><circle cx="435.65" cy="205.72" fill="#4eccc4" r="69.6"/><circle cx="435.65" cy="205.71" fill="#4dccc4" r="69.48"/><circle cx="435.65" cy="205.7" fill="#4cccc4" r="69.36"/><circle cx="435.65" cy="205.7" fill="#4bcbc4" r="69.24"/><circle cx="435.65" cy="205.69" fill="#4acbc4" r="69.12"/><circle cx="435.65" cy="205.68" fill="#49cbc4" r="68.99"/><circle cx="435.65" cy="205.67" fill="#48cbc4" r="68.87"/><circle cx="435.65" cy="205.67" fill="#46cac4" r="68.75"/><circle cx="435.65" cy="205.66" fill="#45cac4" r="68.63"/><circle cx="435.65" cy="205.65" fill="#44cac4" r="68.5"/><circle cx="435.65" cy="205.64" fill="#43c9c5" r="68.38"/><circle cx="435.65" cy="205.64" fill="#42c9c5" r="68.26"/><circle cx="435.65" cy="205.63" fill="#41c9c5" r="68.14"/><circle cx="435.65" cy="205.62" fill="#40c9c5" r="68.02"/><circle cx="435.65" cy="205.61" fill="#3ec8c5" r="67.89"/><circle cx="435.65" cy="205.6" fill="#3dc8c5" r="67.77"/><circle cx="435.65" cy="205.6" fill="#3cc8c5" r="67.65"/><circle cx="435.65" cy="205.59" fill="#3bc7c5" r="67.53"/><circle cx="435.65" cy="205.58" fill="#3ac7c5" r="67.41"/><circle cx="435.65" cy="205.57" fill="#39c7c5" r="67.28"/><circle cx="435.65" cy="205.57" fill="#37c7c5" r="67.16"/><circle cx="435.65" cy="205.56" fill="#36c6c5" r="67.04"/><circle cx="435.65" cy="205.55" fill="#35c6c5" r="66.92"/><circle cx="435.65" cy="205.54" fill="#34c6c5" r="66.8"/><circle cx="435.65" cy="205.54" fill="#33c5c5" r="66.67"/><circle cx="435.65" cy="205.53" fill="#32c5c5" r="66.55"/><circle cx="435.65" cy="205.52" fill="#30c5c5" r="66.43"/><circle cx="435.65" cy="205.51" fill="#2fc5c5" r="66.31"/><circle cx="435.65" cy="205.5" fill="#2ec4c5" r="66.19"/><circle cx="435.65" cy="205.5" fill="#2dc4c5" r="66.06"/><circle cx="435.65" cy="205.49" fill="#2cc4c5" r="65.94"/><circle cx="435.65" cy="205.48" fill="#2ac3c5" r="65.82"/><circle cx="435.65" cy="205.47" fill="#29c3c5" r="65.7"/><circle cx="435.65" cy="205.47" fill="#28c3c6" r="65.58"/><circle cx="435.65" cy="205.46" fill="#27c3c6" r="65.45"/><circle cx="435.65" cy="205.45" fill="#26c2c6" r="65.33"/><circle cx="435.65" cy="205.44" fill="#24c2c6" r="65.21"/><circle cx="435.65" cy="205.44" fill="#23c2c6" r="65.09"/><circle cx="435.65" cy="205.43" fill="#22c1c6" r="64.97"/><circle cx="435.65" cy="205.42" fill="#21c1c6" r="64.84"/><circle cx="435.65" cy="205.41" fill="#1fc1c6" r="64.72"/><circle cx="435.65" cy="205.4" fill="#1ec0c6" r="64.6"/><circle cx="435.65" cy="205.4" fill="#1dc0c6" r="64.48"/><circle cx="435.65" cy="205.39" fill="#1cc0c6" r="64.36"/><circle cx="435.65" cy="205.38" fill="#1ac0c6" r="64.23"/><circle cx="435.65" cy="205.37" fill="#19bfc6" r="64.11"/><circle cx="435.65" cy="205.37" fill="#18bfc6" r="63.99"/><circle cx="435.65" cy="205.36" fill="#17bfc6" r="63.87"/><circle cx="435.65" cy="205.35" fill="#16bec6" r="63.75"/><circle cx="435.65" cy="205.34" fill="#14bec6" r="63.62"/><circle cx="435.65" cy="205.34" fill="#13bec6" r="63.5"/><circle cx="435.65" cy="205.33" fill="#12bdc6" r="63.38"/><circle cx="435.65" cy="205.32" fill="#11bdc6" r="63.26"/><circle cx="435.65" cy="205.31" fill="#0fbdc6" r="63.14"/><circle cx="435.65" cy="205.3" fill="#0ebcc6" r="63.01"/><circle cx="435.65" cy="205.3" fill="#0dbcc7" r="62.89"/><circle cx="435.65" cy="205.29" fill="#0bbcc7" r="62.77"/><circle cx="435.65" cy="205.28" fill="#0abcc7" r="62.65"/><circle cx="435.65" cy="205.27" fill="#09bbc7" r="62.53"/><circle cx="435.65" cy="205.27" fill="#08bbc7" r="62.4"/><circle cx="435.65" cy="205.26" fill="#06bbc7" r="62.28"/><circle cx="435.65" cy="205.25" fill="#05bac7" r="62.16"/><circle cx="435.65" cy="205.24" fill="#04bac7" r="62.04"/><circle cx="435.65" cy="205.24" fill="#03bac7" r="61.92"/><circle cx="435.65" cy="205.23" fill="#01b9c7" r="61.79"/><circle cx="435.65" cy="205.22" fill="#00b9c7" r="61.67"/><circle cx="435.65" cy="205.22" fill="#00b9c7" r="61.55"/><circle cx="435.65" cy="205.2" fill="#00b9c8" r="61.22"/><circle cx="435.65" cy="205.18" fill="#00b8c8" r="60.89"/><circle cx="435.65" cy="205.16" fill="#00b7c9" r="60.56"/><circle cx="435.65" cy="205.14" fill="#00b7ca" r="60.23"/><circle cx="435.65" cy="205.11" fill="#00b6ca" r="59.9"/><circle cx="435.65" cy="205.09" fill="#00b5cb" r="59.56"/><circle cx="435.65" cy="205.07" fill="#00b4cc" r="59.23"/><circle cx="435.65" cy="205.05" fill="#00b4cd" r="58.9"/><circle cx="435.65" cy="205.03" fill="#00b3ce" r="58.57"/><circle cx="435.65" cy="205.01" fill="#00b2cf" r="58.24"/><circle cx="435.65" cy="204.99" fill="#00b1d0" r="57.91"/><circle cx="435.65" cy="204.97" fill="#00b0d0" r="57.58"/><circle cx="435.65" cy="204.95" fill="#00b0d1" r="57.25"/><circle cx="435.65" cy="204.92" fill="#00afd2" r="56.92"/><circle cx="435.65" cy="204.9" fill="#00aed3" r="56.59"/><circle cx="435.65" cy="204.88" fill="#00add4" r="56.25"/><circle cx="435.65" cy="204.86" fill="#01acd5" r="55.92"/><circle cx="435.65" cy="204.84" fill="#01abd6" r="55.59"/><circle cx="435.65" cy="204.82" fill="#01aad7" r="55.26"/><circle cx="435.65" cy="204.8" fill="#01a9d8" r="54.93"/><circle cx="435.65" cy="204.78" fill="#01a8d9" r="54.6"/><circle cx="435.65" cy="204.76" fill="#01a7da" r="54.27"/><circle cx="435.65" cy="204.73" fill="#01a7db" r="53.94"/><circle cx="435.65" cy="204.71" fill="#01a6dc" r="53.61"/><circle cx="435.65" cy="204.69" fill="#01a5dd" r="53.28"/><circle cx="435.65" cy="204.67" fill="#01a4de" r="52.95"/><circle cx="435.65" cy="204.65" fill="#01a3df" r="52.61"/><circle cx="435.65" cy="204.63" fill="#01a2e0" r="52.28"/><circle cx="435.65" cy="204.61" fill="#01a1e2" r="51.95"/><circle cx="435.65" cy="204.59" fill="#01a0e3" r="51.62"/><circle cx="435.65" cy="204.57" fill="#019fe4" r="51.29"/><circle cx="435.65" cy="204.54" fill="#019ee5" r="50.96"/><circle cx="435.65" cy="204.52" fill="#019de6" r="50.63"/><circle cx="435.65" cy="204.5" fill="#019ce7" r="50.3"/><circle cx="435.65" cy="204.48" fill="#019be8" r="49.97"/><circle cx="435.65" cy="204.46" fill="#019ae9" r="49.64"/><circle cx="435.65" cy="204.44" fill="#0199ea" r="49.31"/><circle cx="435.65" cy="204.42" fill="#0198eb" r="48.97"/><circle cx="435.65" cy="204.4" fill="#0197ed" r="48.64"/><circle cx="435.65" cy="204.38" fill="#0196ee" r="48.31"/><circle cx="435.65" cy="204.35" fill="#0195ef" r="47.98"/><circle cx="435.65" cy="204.33" fill="#0194f0" r="47.65"/><circle cx="435.65" cy="204.31" fill="#0293f1" r="47.32"/><circle cx="435.65" cy="204.29" fill="#0292f2" r="46.99"/><circle cx="435.65" cy="204.27" fill="#0291f3" r="46.66"/><circle cx="435.65" cy="204.25" fill="#0290f4" r="46.33"/><circle cx="435.65" cy="204.23" fill="#028ff6" r="46"/><circle cx="435.65" cy="204.21" fill="#028df7" r="45.67"/><circle cx="435.65" cy="204.19" fill="#028cf8" r="45.33"/><circle cx="435.65" cy="204.17" fill="#028bf9" r="45"/><circle cx="435.65" cy="204.14" fill="#028afa" r="44.67"/><circle cx="435.65" cy="204.12" fill="#0289fb" r="44.34"/><circle cx="435.65" cy="204.1" fill="#0288fd" r="44.01"/><circle cx="435.65" cy="204.08" fill="#0287fe" r="43.68"/><circle cx="435.65" cy="204.06" fill="#0286ff" r="43.35"/><circle cx="435.65" cy="204.06" fill="#0286ff" r="43.02"/><circle cx="435.65" cy="204.04" fill="#0285fe" r="42.77"/><circle cx="435.65" cy="204.03" fill="#0385fd" r="42.53"/><circle cx="435.65" cy="204.01" fill="#0384fd" r="42.28"/><circle cx="435.65" cy="204" fill="#0383fc" r="42.03"/><circle cx="435.65" cy="203.98" fill="#0483fb" r="41.79"/><circle cx="435.65" cy="203.97" fill="#0482fa" r="41.54"/><circle cx="435.65" cy="203.95" fill="#0481f9" r="41.3"/><circle cx="435.65" cy="203.94" fill="#0581f8" r="41.05"/><circle cx="435.65" cy="203.92" fill="#0580f7" r="40.8"/><circle cx="435.65" cy="203.9" fill="#057ff6" r="40.56"/><circle cx="435.65" cy="203.89" fill="#067ff5" r="40.31"/><circle cx="435.65" cy="203.87" fill="#067ef4" r="40.07"/><circle cx="435.65" cy="203.86" fill="#067df4" r="39.82"/><circle cx="435.65" cy="203.84" fill="#077df3" r="39.58"/><circle cx="435.65" cy="203.83" fill="#077cf2" r="39.33"/><circle cx="435.65" cy="203.81" fill="#077bf1" r="39.08"/><circle cx="435.65" cy="203.8" fill="#087af0" r="38.84"/><circle cx="435.65" cy="203.78" fill="#087aef" r="38.59"/><circle cx="435.65" cy="203.76" fill="#0879ee" r="38.35"/><circle cx="435.65" cy="203.75" fill="#0978ed" r="38.1"/><circle cx="435.65" cy="203.73" fill="#0977ec" r="37.85"/><circle cx="435.65" cy="203.72" fill="#0a77eb" r="37.61"/><circle cx="435.65" cy="203.7" fill="#0a76ea" r="37.36"/><circle cx="435.65" cy="203.69" fill="#0a75e9" r="37.12"/><circle cx="435.65" cy="203.67" fill="#0b75e8" r="36.87"/><circle cx="435.65" cy="203.66" fill="#0b74e7" r="36.62"/><circle cx="435.65" cy="203.64" fill="#0b73e6" r="36.38"/><circle cx="435.65" cy="203.62" fill="#0c72e5" r="36.13"/><circle cx="435.65" cy="203.61" fill="#0c72e4" r="35.89"/><circle cx="435.65" cy="203.59" fill="#0c71e3" r="35.64"/><circle cx="435.65" cy="203.58" fill="#0d70e2" r="35.39"/><circle cx="435.65" cy="203.56" fill="#0d6fe1" r="35.15"/><circle cx="435.65" cy="203.55" fill="#0e6fe0" r="34.9"/><circle cx="435.65" cy="203.53" fill="#0e6edf" r="34.66"/><circle cx="435.65" cy="203.52" fill="#0e6dde" r="34.41"/><circle cx="435.65" cy="203.5" fill="#0f6cdd" r="34.17"/><circle cx="435.65" cy="203.49" fill="#0f6cdc" r="33.92"/><circle cx="435.65" cy="203.47" fill="#0f6bdb" r="33.67"/><circle cx="435.65" cy="203.45" fill="#106ada" r="33.43"/><circle cx="435.65" cy="203.44" fill="#1069d9" r="33.18"/><circle cx="435.65" cy="203.42" fill="#1169d8" r="32.94"/><circle cx="435.65" cy="203.41" fill="#1168d7" r="32.69"/><circle cx="435.65" cy="203.39" fill="#1167d6" r="32.44"/><circle cx="435.65" cy="203.38" fill="#1266d5" r="32.2"/><circle cx="435.65" cy="203.36" fill="#1265d4" r="31.95"/><circle cx="435.65" cy="203.35" fill="#1265d3" r="31.71"/><circle cx="435.65" cy="203.33" fill="#1364d2" r="31.46"/><circle cx="435.65" cy="203.31" fill="#1363d1" r="31.21"/><circle cx="435.64" cy="203.3" fill="#1462d0" r="30.97"/><circle cx="435.64" cy="203.28" fill="#1462cf" r="30.72"/><circle cx="435.64" cy="203.27" fill="#1461ce" r="30.48"/><circle cx="435.64" cy="203.25" fill="#1560cd" r="30.23"/><circle cx="435.64" cy="203.24" fill="#155fcc" r="29.98"/><circle cx="435.64" cy="203.22" fill="#165fcb" r="29.74"/><circle cx="435.64" cy="203.21" fill="#165eca" r="29.49"/><circle cx="435.64" cy="203.19" fill="#165dc9" r="29.25"/><circle cx="435.64" cy="203.17" fill="#175cc8" r="29"/><circle cx="435.64" cy="203.16" fill="#175bc7" r="28.75"/><circle cx="435.64" cy="203.14" fill="#175bc6" r="28.51"/><circle cx="435.64" cy="203.13" fill="#185ac5" r="28.26"/><circle cx="435.64" cy="203.11" fill="#1859c4" r="28.02"/><circle cx="435.64" cy="203.1" fill="#1958c3" r="27.77"/><circle cx="435.64" cy="203.08" fill="#1958c2" r="27.53"/><circle cx="435.64" cy="203.07" fill="#1957c1" r="27.28"/><circle cx="435.64" cy="203.05" fill="#1a56c0" r="27.03"/><circle cx="435.64" cy="203.03" fill="#1a55bf" r="26.79"/><circle cx="435.64" cy="203.02" fill="#1b54be" r="26.54"/><circle cx="435.64" cy="203" fill="#1b54bd" r="26.3"/><circle cx="435.64" cy="202.99" fill="#1b53bc" r="26.05"/><circle cx="435.64" cy="202.97" fill="#1c52bb" r="25.8"/><circle cx="435.64" cy="202.96" fill="#1c51ba" r="25.56"/><circle cx="435.64" cy="202.94" fill="#1c51b9" r="25.31"/><circle cx="435.64" cy="202.93" fill="#1d50b8" r="25.07"/><circle cx="435.64" cy="202.91" fill="#1d4fb7" r="24.82"/><circle cx="435.64" cy="202.9" fill="#1e4eb6" r="24.57"/><circle cx="435.64" cy="202.88" fill="#1e4db5" r="24.33"/><circle cx="435.64" cy="202.86" fill="#1e4db4" r="24.08"/><circle cx="435.64" cy="202.85" fill="#1f4cb2" r="23.84"/><circle cx="435.64" cy="202.83" fill="#1f4bb1" r="23.59"/><circle cx="435.64" cy="202.82" fill="#204ab0" r="23.34"/><circle cx="435.64" cy="202.8" fill="#2049af" r="23.1"/><circle cx="435.64" cy="202.79" fill="#2049ae" r="22.85"/><circle cx="435.64" cy="202.77" fill="#2148ad" r="22.61"/><circle cx="435.64" cy="202.76" fill="#2147ac" r="22.36"/><circle cx="435.64" cy="202.74" fill="#2246ab" r="22.12"/><circle cx="435.64" cy="202.72" fill="#2246aa" r="21.87"/><circle cx="435.64" cy="202.71" fill="#2245a9" r="21.62"/><circle cx="435.64" cy="202.69" fill="#2344a8" r="21.38"/><circle cx="435.64" cy="202.68" fill="#2343a7" r="21.13"/><circle cx="435.64" cy="202.66" fill="#2342a6" r="20.89"/><circle cx="435.64" cy="202.65" fill="#2442a5" r="20.64"/><circle cx="435.64" cy="202.63" fill="#2441a4" r="20.39"/><circle cx="435.64" cy="202.62" fill="#2540a3" r="20.15"/><circle cx="435.64" cy="202.6" fill="#253fa2" r="19.9"/><circle cx="435.64" cy="202.58" fill="#253ea1" r="19.66"/><circle cx="435.64" cy="202.57" fill="#263ea0" r="19.41"/><circle cx="435.64" cy="202.55" fill="#263d9f" r="19.16"/><circle cx="435.64" cy="202.54" fill="#273c9e" r="18.92"/><circle cx="435.64" cy="202.52" fill="#273b9d" r="18.67"/><circle cx="435.64" cy="202.51" fill="#273a9b" r="18.43"/><circle cx="435.64" cy="202.49" fill="#283a9a" r="18.18"/><circle cx="435.64" cy="202.48" fill="#283999" r="17.93"/><circle cx="435.64" cy="202.46" fill="#293898" r="17.69"/><circle cx="435.64" cy="202.44" fill="#293797" r="17.44"/><circle cx="435.64" cy="202.43" fill="#293696" r="17.2"/><circle cx="435.64" cy="202.41" fill="#2a3695" r="16.95"/><circle cx="435.64" cy="202.4" fill="#2a3594" r="16.71"/><circle cx="435.64" cy="202.38" fill="#2b3493" r="16.46"/><circle cx="435.64" cy="202.37" fill="#2b3392" r="16.21"/><circle cx="435.64" cy="202.35" fill="#2b3291" r="15.97"/><circle cx="435.64" cy="202.34" fill="#2c3290" r="15.72"/><circle cx="435.64" cy="202.32" fill="#2c318f" r="15.48"/><circle cx="435.64" cy="202.31" fill="#2d308e" r="15.23"/><circle cx="435.64" cy="202.29" fill="#2d2f8d" r="14.98"/><circle cx="435.64" cy="202.27" fill="#2d2e8c" r="14.74"/><circle cx="435.64" cy="202.26" fill="#2e2d8b" r="14.49"/><circle cx="435.64" cy="202.24" fill="#2e2d89" r="14.25"/><circle cx="435.64" cy="202.23" fill="#2f2c88" r="14"/><circle cx="435.64" cy="202.21" fill="#2f2b87" r="13.75"/><circle cx="435.64" cy="202.2" fill="#2f2a86" r="13.51"/><circle cx="435.64" cy="202.18" fill="#302985" r="13.26"/><circle cx="435.64" cy="202.17" fill="#302984" r="13.02"/><circle cx="435.64" cy="202.15" fill="#312883" r="12.77"/><circle cx="435.64" cy="202.13" fill="#312782" r="12.52"/></g><path d="m434.53 281.43-69-39.85v-79.71l69-39.86 69 39.86v79.71zm-64.61-42.43 64.61 37.3 64.6-37.3v-74.6l-64.6-37.29-64.61 37.29z" fill="#fff"/><path d="m434.53 204.25-67.93-39.22 2.21-3.83 65.72 37.93 65.7-37.9 2.22 3.83z" fill="#fff"/><path d="m432.31 201.69h4.43v77.18h-4.43z" fill="#fff"/><path d="m471.93 258.56h-4.43v-75.89l-32.22-18.71 2.23-3.83 34.42 19.99z" fill="#fff"/><path d="m434.56 241.91-67.93-38.26 2.18-3.87 65.72 37.03 34.08-19.67 2.21 3.83z" fill="#fff"/><path d="m395.97 160.91h77.11v4.43h-77.11z" fill="#fff" transform="matrix(.8660254 -.5 .5 .8660254 -23.35 239.11)"/></svg>