<svg enable-background="new 0 0 499.51 113.39" viewBox="0 0 499.51 113.39" xmlns="http://www.w3.org/2000/svg" xmlns:xlink="http://www.w3.org/1999/xlink"><radialGradient id="a" cx="49.251" cy="56.691" gradientUnits="userSpaceOnUse" r="51.488"><stop offset=".184" stop-color="#1a3897"/><stop offset=".245" stop-color="#1d3ea1"/><stop offset=".347" stop-color="#254ebb"/><stop offset=".477" stop-color="#3169e6"/><stop offset=".5" stop-color="#346eee"/><stop offset=".66" stop-color="#3591df"/><stop offset=".82" stop-color="#36bacf"/><stop offset="1" stop-color="#62c8b9"/></radialGradient><path d="m157.8 52.88c3.76 1.2 6.76 3.23 8.9 6.03 2.71 3.54 3.78 7.77 3.19 12.58-.92 7.43-5.2 12.39-12.74 14.75-3.11.97-6.18 1.46-9.21 1.46-3.88 0-7.69-.8-11.37-2.4-5.49-2.37-9.02-6.3-10.51-11.66-.12-.42-.21-.84-.3-1.29-.04-.21-.09-.42-.14-.64l-.15-.67 12.36-3.16.2.64c.06.19.11.38.17.57.11.38.21.74.35 1.08.85 2.19 2.58 3.65 5.31 4.47 2.88.87 5.8.93 8.7.17 1.95-.51 3.22-1.45 3.9-2.89 1.15-2.45.23-5.23-2.15-6.48-1.2-.63-2.6-1.01-3.95-1.37-1.45-.39-2.88-.74-4.26-1.08-2.44-.6-4.97-1.22-7.4-2.01-5.09-1.67-8.64-4.87-10.56-9.51-1.85-4.48-1.82-10 .08-14.41 1.81-4.21 5.2-7.37 9.8-9.14 6.81-2.62 13.59-2.51 20.14.32 5.45 2.36 8.9 6.53 10.24 12.4.1.44.27 1.27.27 1.27s-.8.24-1.2.34c-3.31.85-6.67 1.74-9.92 2.6-.2.05-1.34.33-1.34.33s-.21-.84-.31-1.25c-1.14-4.49-5.33-5.35-7.07-5.51-2.31-.22-4.01-.01-5.53.67-2.24 1-3.34 2.63-3.36 4.97-.02 2.21 1.07 3.78 3.24 4.67 1.15.47 2.41.81 3.62 1.12.35.09.71.19 1.06.28 1.14.31 2.28.61 3.42.9 2.15.59 4.37 1.16 6.52 1.85m114.59-6.92h-7.48l.01-16.06h-12.44l.01 16.05h-15.4l.01-16.05h-12.45l.01 16.12h-7.46v10.67h7.46l-.01 29.84h12.44v-29.84h15.4v29.84h12.42l-.01-29.85 7.49.03zm196.38 16.04c-.01-1.79-.15-3.37-.42-4.81-1.01-5.39-3.9-9.09-8.59-11.01-3.36-1.38-7.05-1.74-10.97-1.08-3.02.51-5.44 1.64-7.35 3.45l-.25-2.52h-11.87l-.09 40.54h12.61s-.02-15.1-.01-21.67c0-.93.03-1.63.1-2.28.25-2.42 1.18-4.01 2.91-4.98 1.92-1.08 3.75-1.47 5.58-1.19 3.2.47 5.06 2.12 5.5 4.88.17 1.04.25 2.17.26 3.44.02 6.01 0 21.81 0 21.81h12.61c.01-.01 0-20.26-.02-24.58m10.9-32.1.01 16.1h-7.44l-.02 10.68h7.46v29.83h12.54v-29.82h7.3v-10.74h-7.36v-16.05zm-202.77 56.6h12.55v-56.6h-12.55zm132.3.01h12.53v-40.47h-12.53zm6.35-60.18h-.03c-4.09 0-7.31 3.16-7.33 7.2-.01 1.94.73 3.76 2.07 5.11 1.37 1.38 3.22 2.14 5.21 2.15h.03c3.92 0 7.13-3.22 7.15-7.2.01-1.97-.73-3.8-2.08-5.17-1.32-1.34-3.11-2.08-5.02-2.09m-27.73 3.57-16.33 40.38-16.27-40.38h-13.37v56.6h12.53v-28.24l11.02 28.31h12.07l11.22-28.65v28.58h12.91v-56.6zm-194.93 25.68c-3.22.49-5.56 2.79-6.24 6.08h15.61c-.27-2.1-1.01-3.54-2.34-4.61-1.82-1.46-4.05-1.92-7.03-1.47m19.92 22.29c-.77 1.46-1.73 2.77-2.87 3.89-3.52 3.48-8.02 5.42-13.4 5.76-.63.04-1.24.06-1.84.06-3.76 0-7.05-.78-10.01-2.37-5.01-2.7-8.25-6.96-9.63-12.68-1.47-6.12-.93-11.82 1.63-16.96 2.85-5.74 7.57-9.22 14.03-10.37 5.29-.94 10.1-.26 14.32 2.02 4.8 2.59 7.97 6.85 9.42 12.66.8 3.2.75 6.46.7 9.62l-.02 1.32h-.3l-28.51.02c.33 1.67 1.06 2.91 2.25 3.87 3.1 2.5 8.74 2.65 11.85.31.44-.33.85-.76 1.23-1.21zm101-22.29c-3.22.49-5.56 2.79-6.24 6.08h15.61c-.27-2.1-1.01-3.54-2.34-4.61-1.81-1.46-4.04-1.92-7.03-1.47m19.93 22.29c-.77 1.46-1.73 2.77-2.87 3.89-3.52 3.48-8.02 5.42-13.4 5.76-.63.04-1.24.06-1.84.06-3.76 0-7.05-.78-10.01-2.37-5.01-2.7-8.25-6.96-9.63-12.68-1.47-6.12-.93-11.82 1.63-16.96 2.85-5.74 7.57-9.22 14.03-10.37 5.29-.94 10.1-.26 14.32 2.02 4.8 2.59 7.97 6.85 9.42 12.66.8 3.2.75 6.46.7 9.62l-.02 1.32h-.3l-28.51.02c.33 1.67 1.06 2.91 2.25 3.87 3.1 2.5 8.74 2.65 11.85.31.44-.33.85-.76 1.23-1.21z" fill="#fff"/><path d="m96.92 84.21v-55.04l-47.67-27.52-47.67 27.52v55.04l47.67 27.53z" fill="url(#a)"/><path d="m48.69.15-48.13 27.78c-.34.21-.56.58-.56.98v55.56c0 .4.22.78.56.98l48.12 27.78c.35.2.78.2 1.13 0l48.12-27.78c.35-.2.56-.57.56-.98v-55.56c0-.4-.22-.78-.56-.98l-48.12-27.78c-.35-.2-.78-.2-1.12 0zm25.1 39.88-18.37-10.66c-.75-.44-.75-1.52 0-1.95l17.08-9.86c.35-.2.78-.2 1.13 0l18.43 10.64c.75.43.75 1.52 0 1.95l-17.14 9.89c-.35.2-.78.2-1.13-.01zm-68.94-7.17 42.25 24.39c.35.2.56.57.56.98v20.67c0 .86-.93 1.41-1.68.98l-42.25-23.8c-.35-.2-.57-.58-.57-.98v-21.26c0-.87.94-1.41 1.69-.98zm46.54 51.28 19.69-11.37c.75-.43 1.69.11 1.69.98v21.93c0 .4-.22.78-.56.98l-19.69 11.37c-.75.43-1.69-.11-1.69-.98v-21.93c0-.41.21-.78.56-.98zm20.82-15.67-19.69 11.37c-.75.43-1.69-.11-1.69-.98v-20.62c0-.4.22-.78.56-.98l19.69-11.36c.75-.43 1.69.11 1.69.98v20.62c0 .4-.21.77-.56.97zm-23.52-13.95-18.41-10.63c-.75-.43-.75-1.52 0-1.95l19.74-11.4c.35-.2.78-.2 1.13 0l18.37 10.66c.75.44.75 1.52 0 1.95l-19.7 11.36c-.36.21-.79.21-1.13.01zm19.53-38.14-42.23 24.38c-.35.2-.78.2-1.13 0l-18.75-10.82c-.6-.35-.6-1.22 0-1.56l42.58-24.58c.35-.2.78-.2 1.13 0l18.41 10.63c.74.43.74 1.52-.01 1.95zm-63.38 43.95 42.25 23.8c.35.2.57.58.57.98v21.93c0 .87-.94 1.41-1.69.98l-42.25-24.39c-.35-.2-.56-.57-.56-.98v-21.33c0-.87.93-1.41 1.68-.99zm71.09 32.22v-48.8c0-.4.22-.78.56-.98l17.15-9.89c.75-.43 1.69.11 1.69.98v48.79c0 .4-.22.78-.56.98l-17.15 9.9c-.75.43-1.69-.11-1.69-.98z" fill="#fff"/></svg>